<svg width="86" height="86" viewBox="0 0 86 86" fill="none" xmlns="http://www.w3.org/2000/svg">
<path d="M78.0405 72.9275H78.3627C78.7565 72.7843 79.1503 72.6769 79.5083 72.5337V71.4955C79.5083 71.2449 79.7231 71.0301 79.9736 71.0301C80.2242 71.0301 80.439 71.2449 80.439 71.4955V72.1757C82.6943 71.1733 83.9831 70.0994 83.9831 68.9538C83.9831 67.0923 80.7254 65.4098 75.2841 64.0495L75.1767 64.7654C75.1767 64.9086 75.1409 65.016 75.1051 65.1592C75.0693 65.3024 75.0335 65.4098 74.9977 65.5172C74.9619 65.6246 74.9261 65.7678 74.8545 65.8752C74.8187 65.9826 74.7471 66.09 74.6755 66.2332C74.6397 66.3406 74.5681 66.4121 74.4965 66.4837C74.4607 66.5195 74.4607 66.5553 74.4249 66.5911C74.3891 66.6627 74.3175 66.7343 74.2459 66.8059L74.2101 66.8775C74.1027 66.9849 74.0311 67.0923 73.9237 67.1997C73.8521 67.2713 73.7805 67.3429 73.7089 67.3787C73.6373 67.4503 73.5657 67.4861 73.4941 67.5577C73.4225 67.6293 73.351 67.6651 73.2436 67.7367C73.2078 67.7725 73.1362 67.8083 73.1004 67.8441C73.0288 67.8799 72.9572 67.9157 72.8856 67.9873L72.6708 68.0947C72.5276 68.1663 72.4202 68.2021 72.277 68.2737C72.2054 68.3095 72.1696 68.3095 72.098 68.3453C71.9906 68.3811 71.8474 68.4169 71.74 68.4527C71.4894 68.4885 71.2388 68.5243 70.9883 68.5243H14.8206C14.6416 68.5243 14.4268 68.4885 14.2478 68.4527C14.1404 68.4169 14.0331 68.4169 13.9257 68.3811C13.7825 68.3453 13.6751 68.2737 13.5319 68.2379L13.3171 68.1305C13.2455 68.0947 13.1739 68.0589 13.1023 67.9873C13.0665 67.9515 12.9949 67.9157 12.9591 67.8799C12.8875 67.8083 12.8159 67.7725 12.7085 67.7009C12.6369 67.6293 12.5653 67.5935 12.4937 67.5219C12.4221 67.4503 12.3505 67.3787 12.2789 67.3429C12.1715 67.2355 12.0641 67.1281 11.9925 67.0207L11.9567 66.9491C11.8851 66.8775 11.8494 66.8059 11.7778 66.7343C11.6346 66.5195 11.4914 66.269 11.384 66.0184C11.3482 65.911 11.2766 65.7678 11.2408 65.6604C11.205 65.5888 11.205 65.5172 11.1692 65.4456L11.0618 64.9086L10.9186 63.7273L10.7038 63.7631V63.6199C4.0811 65.0518 0.0358887 66.9133 0.0358887 68.9896C0.0358887 70.529 2.25539 71.9251 6.08581 73.1422C13.3887 75.5049 26.8489 77.1159 42.278 77.1159H43.0297C43.0297 77.0801 43.0655 77.0801 43.0655 77.0443C57.6713 76.9727 70.4155 75.4691 77.6826 73.2496C77.7184 72.999 77.8615 72.9275 78.0405 72.9275Z" fill="#EFCF8E"/>
<path d="M12.064 22.0221V22.0937H74.4605L74.6037 18.5497C74.6037 17.7621 74.0667 17.082 73.315 16.903C73.136 16.8314 72.9212 16.7956 72.7064 16.7956H38.5905V12.1418C38.5905 11.1752 37.9462 10.3519 37.0154 10.1371C36.7648 10.0297 36.5142 9.9939 36.2636 9.9939H19.9038C18.7582 9.9939 17.7917 10.9247 17.7917 12.0702V16.7598H13.3169C12.4219 16.7598 11.6702 17.5116 11.6702 18.4781L11.8134 22.0221H12.064Z" fill="#F6D698"/>
<path d="M79.5081 23.8837C79.5797 24.0269 79.6513 24.1343 79.7229 24.2775C79.6513 24.1343 79.5797 23.9911 79.5081 23.8837ZM11.7418 64.5865C11.8492 65.374 12.243 66.09 12.8515 66.627C13.4243 67.164 14.1761 67.4503 14.9636 67.4861H70.9881C71.7757 67.4861 72.5274 67.164 73.1002 66.627C73.7088 66.09 74.1025 65.374 74.2099 64.5865L79.1143 26.9982C79.2575 25.781 78.9711 24.6713 78.291 23.8837C77.7898 23.311 77.0738 22.9888 76.322 22.9888H9.62968C8.87791 22.9888 8.16195 23.311 7.66077 23.8837C6.9806 24.6713 6.69421 25.781 6.83741 26.9982L11.7418 64.5865ZM59.4968 45.3986C60.7855 45.3986 62.0385 45.6133 63.2198 46.0429C63.3272 46.0787 63.3988 46.1145 63.5062 46.1503C63.8642 46.2935 64.2222 46.4725 64.5802 46.6873C64.7592 46.7947 64.9024 46.9021 65.0456 47.0095L65.4751 47.3317L66.0121 47.8686C66.1195 47.976 66.1911 48.1192 66.2985 48.2624C66.5849 48.7278 66.7281 49.229 66.7281 49.766C66.7281 50.2313 66.6207 50.6609 66.4059 51.0547C66.3343 51.1979 66.2627 51.3411 66.1553 51.4485C66.0479 51.5917 65.9763 51.6991 65.8689 51.8423C65.6899 52.0212 65.5109 52.2002 65.2961 52.3792L64.8666 52.7014C64.7234 52.8088 64.5444 52.9162 64.3654 52.9878C64.1148 53.131 63.8284 53.2742 63.542 53.3816C63.363 53.4532 63.1482 53.5248 62.9335 53.5964C60.714 54.3123 58.3155 54.3123 56.0602 53.5964C55.7738 53.489 55.4516 53.3816 55.1652 53.2742C54.9862 53.2026 54.8072 53.0952 54.6282 53.0236C54.306 52.8446 53.9839 52.6298 53.6975 52.415C53.5543 52.3076 53.4469 52.2002 53.3037 52.057C53.1247 51.8781 52.9815 51.6991 52.8383 51.4843C52.8025 51.4127 52.7667 51.3411 52.6951 51.2695C52.4803 50.9473 52.3729 50.5893 52.3013 50.2313C52.2655 50.0881 52.2655 49.9449 52.2655 49.8018C52.2655 49.2648 52.4087 48.7636 52.6951 48.2982C52.7667 48.155 52.8741 48.0476 52.9815 47.9044C53.1247 47.7254 53.3037 47.5107 53.5185 47.3675C53.6617 47.2601 53.7691 47.1527 53.9481 47.0453C54.1271 46.9379 54.2702 46.8305 54.4134 46.7231C54.7714 46.5083 55.0936 46.3293 55.4874 46.1861C55.5948 46.1503 55.6664 46.1145 55.7738 46.0787C56.0602 45.9713 56.3465 45.8997 56.6329 45.8281C57.5637 45.5417 58.5302 45.3986 59.4968 45.3986ZM51.12 33.0123C51.5496 33.0481 51.9076 33.3345 52.0149 33.7641C52.0149 35.375 52.9815 36.3416 54.1987 36.7711C54.6282 36.8785 55.0578 36.9501 55.4874 36.9501H58.1723C58.5661 36.8427 58.9598 37.0575 59.0672 37.4513C59.1746 37.8451 58.9598 38.2389 58.5661 38.3463C58.5303 38.3463 58.4587 38.3821 58.4229 38.3821H55.738C55.0578 38.3821 54.4134 38.2747 53.7691 38.0599C51.7644 37.4513 50.404 35.8046 50.404 33.6925C50.4398 33.3345 50.762 33.0123 51.12 33.0123ZM52.3013 41.2817C53.8407 41.2817 55.0936 42.5347 55.0578 44.074C55.022 45.6133 53.8049 46.8663 52.2655 46.8305C50.7262 46.8305 49.5091 45.5775 49.5091 44.0382C49.5091 42.5347 50.762 41.2817 52.3013 41.2817ZM35.6909 44.1456C35.7983 45.8281 34.5453 47.3317 32.827 47.4391C31.1445 47.5464 29.641 46.2935 29.5336 44.5752C29.4262 42.8927 30.6791 41.3891 32.3974 41.2817C32.827 41.2459 33.2566 41.3175 33.6504 41.4607C34.8317 41.7829 35.6909 42.8927 35.6909 44.1456ZM26.8129 36.9501H29.4978C31.2877 36.9501 33.2208 35.9478 33.2208 33.6925C33.3282 33.2629 33.7578 33.0123 34.1874 33.1197C34.5095 33.1913 34.7601 33.4777 34.7959 33.7999C34.7959 36.449 32.648 38.3821 29.7126 38.3821H27.0277C26.6339 38.4895 26.2401 38.2747 26.1327 37.8809C26.0253 37.4871 26.2401 37.0933 26.6339 36.9859C26.7055 36.9501 26.7771 36.9501 26.8129 36.9501ZM25.1662 45.3986C26.3475 45.3986 27.5289 45.5775 28.6744 45.9355C31.0013 46.6515 32.6122 48.1192 32.6122 49.8018C32.6122 52.2002 29.3904 54.1692 25.4168 54.1692C24.2354 54.1692 23.0541 53.9902 21.9085 53.6322C19.5816 52.9162 17.9707 51.4485 17.9707 49.766C17.9707 47.3675 21.1926 45.3986 25.1662 45.3986ZM80.0809 27.1056C80.0809 27.034 80.0809 26.9624 80.1167 26.9266C80.1167 26.9982 80.1167 27.0698 80.0809 27.1056ZM10.6678 63.6557L5.90665 27.1056L10.6678 63.5483V63.6557ZM74.9975 65.4456C74.9617 65.553 74.9259 65.6962 74.8543 65.8036C74.9259 65.6962 74.9617 65.5888 74.9975 65.4456Z" fill="#FFDD99"/>
<path d="M10.6679 63.6557L10.8827 63.6199L6.12153 27.1771L11.0259 64.7654L11.1333 65.3024C11.1691 65.374 11.1691 65.4456 11.2049 65.5172C11.2407 65.6246 11.2765 65.7678 11.3481 65.8752C11.4555 66.1257 11.5987 66.3763 11.7419 66.5911C11.7777 66.6627 11.8493 66.7343 11.9209 66.8059L11.9567 66.8775C12.0641 66.9849 12.1357 67.0923 12.2431 67.1997C12.3146 67.2713 12.3862 67.3429 12.4578 67.3787C12.5294 67.4503 12.601 67.4861 12.6726 67.5577C12.7442 67.6293 12.8158 67.6651 12.9232 67.7367C12.959 67.7725 13.0306 67.8083 13.0664 67.8441C13.138 67.8799 13.2096 67.9157 13.2812 67.9873L13.496 68.0947C13.6392 68.1663 13.7466 68.2021 13.8898 68.2379C13.9972 68.2736 14.1046 68.3094 14.212 68.3094C14.391 68.3452 14.5699 68.381 14.7847 68.381H70.9882C71.2388 68.381 71.4894 68.3452 71.7399 68.3094C71.8473 68.2736 71.9905 68.2378 72.0979 68.202C72.1695 68.202 72.2053 68.1663 72.2769 68.1305C72.4201 68.0947 72.5633 68.0231 72.6707 67.9515L72.8855 67.8441C72.9571 67.8083 73.0287 67.7725 73.1003 67.7009C73.1361 67.6651 73.2077 67.6293 73.2435 67.5935C73.3151 67.5219 73.3867 67.4861 73.4941 67.4145C73.5657 67.3429 73.6373 67.3071 73.7089 67.2355C73.7805 67.1639 73.8521 67.0923 73.9237 67.0565C74.031 66.9491 74.1384 66.8417 74.21 66.7343L74.2458 66.6627C74.3174 66.5911 74.3532 66.5195 74.4248 66.4479C74.4606 66.4121 74.4606 66.3763 74.4964 66.3405C74.568 66.2689 74.6038 66.1615 74.6754 66.0899C74.747 65.9826 74.7828 65.8752 74.8544 65.732C74.8902 65.6246 74.9618 65.4814 74.9976 65.374C75.0334 65.2666 75.0692 65.1234 75.105 65.016C75.1408 64.9086 75.1408 64.7654 75.1766 64.6222L75.284 63.9062L78.1837 41.6397L80.081 27.0339C80.081 26.9623 80.081 26.8907 80.1168 26.8549V26.6759V26.2822V26.0316C80.1168 25.781 80.081 25.5662 80.0452 25.3156C80.0452 25.244 80.0094 25.1724 80.0094 25.1008C80.0094 25.0292 79.9736 24.9934 79.9736 24.9218C79.9378 24.7428 79.8662 24.5996 79.7946 24.4206C79.7588 24.349 79.723 24.2774 79.723 24.2059C79.6514 24.0627 79.5798 23.9553 79.5082 23.8121C79.4366 23.7047 79.365 23.5615 79.2576 23.4541C79.186 23.3825 79.1144 23.2751 79.0428 23.2035L78.828 22.9887C78.5416 22.7023 78.1837 22.4517 77.7899 22.2727C77.6109 22.2011 77.3961 22.1295 77.1813 22.058C77.0381 22.0222 76.8949 21.9864 76.7517 21.9864C76.6085 21.9864 76.4653 21.9506 76.3221 21.9506H75.1766L75.3198 18.4065C75.3198 17.6548 74.9976 16.9388 74.4606 16.4376C74.3532 16.366 74.2816 16.2586 74.1742 16.187C74.1384 16.1512 74.1026 16.1512 74.0668 16.1154L73.8521 16.008C73.8163 15.9722 73.7805 15.9722 73.7447 15.9722C73.4225 15.829 73.0645 15.7574 72.7423 15.7574H39.3424V12.0702C39.3424 10.3877 37.9463 9.02734 36.2638 9.02734H19.9039C18.2214 9.02734 16.861 10.3877 16.8252 12.0702V15.829H13.317C13.1738 15.829 13.0664 15.829 12.9232 15.8648C12.8874 15.8648 12.8516 15.8648 12.78 15.9006C12.7084 15.9006 12.601 15.9364 12.5294 15.9722C12.3146 16.0438 12.1357 16.1154 11.9567 16.2228C11.6703 16.4018 11.4197 16.6524 11.2049 16.903L10.9901 17.2252C10.9543 17.261 10.9543 17.3326 10.9185 17.3684C10.8827 17.4758 10.8469 17.5832 10.8111 17.6548C10.8111 17.6905 10.7753 17.7621 10.7753 17.7979C10.7753 17.9411 10.7395 18.0485 10.7395 18.1559C10.7395 18.2633 10.7037 18.3707 10.7037 18.4781L10.8469 22.0222H9.62977C9.48658 22.0222 9.34338 22.0222 9.20019 22.058C9.05699 22.058 8.9138 22.0937 8.77061 22.1295C8.23363 22.2727 7.73246 22.5233 7.30287 22.9171L7.15968 23.0603C6.94489 23.2751 6.7659 23.4899 6.62271 23.7047C6.44371 23.9553 6.33632 24.2059 6.22892 24.4922L6.01413 25.1366C6.01413 25.2082 5.97833 25.2798 5.97833 25.3514C5.97833 25.423 5.94254 25.5304 5.94254 25.602C5.90674 25.8526 5.90674 26.0674 5.90674 26.318V26.7117C5.90674 26.8549 5.94254 26.9623 5.94254 27.1055L10.6679 63.6557ZM13.317 16.7598H17.7918V12.0702C17.7918 10.9247 18.7584 9.9939 19.9039 9.9939H36.2638C36.5143 9.9939 36.8007 10.0297 37.0155 10.1371C37.9463 10.3519 38.5907 11.211 38.5907 12.1418V16.7598H72.7065C72.9213 16.7598 73.1003 16.7956 73.3151 16.8672C74.0668 17.0462 74.6038 17.7621 74.6038 18.5139L74.4606 22.058H12.0641V21.9864H11.8135L11.6703 18.4423C11.6703 17.5474 12.422 16.7598 13.317 16.7598ZM10.9901 18.2275C10.9901 18.3349 10.9543 18.4423 10.9543 18.5497C10.9543 18.4423 10.9543 18.3349 10.9901 18.2275ZM7.66086 23.8837C8.16204 23.3109 8.878 22.9887 9.62977 22.9887H76.3221C77.0739 22.9887 77.7899 23.3109 78.2911 23.8837C78.9712 24.6712 79.2576 25.781 79.1144 26.9981L74.21 64.5864C74.1026 65.374 73.7089 66.0899 73.1003 66.6269C72.5275 67.1639 71.7757 67.4503 70.9882 67.4861H14.9995C14.212 67.4861 13.4602 67.1639 12.8874 66.6269C12.2788 66.0899 11.8851 65.374 11.7777 64.5864L6.87329 26.9981C6.6943 25.781 6.98069 24.6354 7.66086 23.8837Z" fill="#E8C476"/>
<path d="M26.7413 38.2746C26.8487 38.3462 26.9561 38.3462 27.0635 38.3462H29.7125C32.648 38.3462 34.7959 36.4131 34.7959 33.764C34.7601 33.3344 34.4021 32.9764 33.9725 33.0122C33.6146 33.048 33.2924 33.2986 33.2208 33.6924C33.2208 35.9477 31.2877 36.9501 29.4977 36.9501H26.8129C26.4549 36.9501 26.1327 37.2722 26.1685 37.6302C26.1685 37.9524 26.3833 38.2388 26.7413 38.2746ZM53.8048 38.0598C54.4492 38.2746 55.0936 38.382 55.7738 38.382H58.4586C58.8524 38.2388 59.0314 37.8092 58.8882 37.4512C58.7808 37.1648 58.5302 36.9859 58.208 36.9859H55.5232C55.0936 36.9859 54.664 36.9143 54.2344 36.8069C53.0173 36.3773 52.0507 35.4107 52.0507 33.7998C52.0149 33.3702 51.6569 33.0122 51.2274 33.048C50.8694 33.0838 50.5472 33.3344 50.4756 33.7282C50.4398 35.8045 51.8001 37.4512 53.8048 38.0598ZM32.648 41.2817C30.9655 41.2459 29.5335 42.6062 29.5335 44.3245C29.4977 46.007 30.8581 47.439 32.5764 47.439C34.2589 47.4748 35.6909 46.1144 35.6909 44.3961C35.7267 43.0716 34.8675 41.8902 33.6504 41.4249C33.3282 41.3533 32.9702 41.2817 32.648 41.2817ZM51.5495 46.7588C53.0173 47.1526 54.5566 46.2934 54.9504 44.7899C55.3442 43.3222 54.485 41.7828 52.9815 41.3891C51.5137 40.9953 49.9744 41.8544 49.5806 43.358C49.509 43.6086 49.4732 43.8233 49.4732 44.0739C49.509 45.3269 50.3682 46.4366 51.5495 46.7588ZM36.8364 57.3551C36.8006 57.3909 36.7648 57.4267 36.7648 57.4625C36.5142 57.7847 36.5858 58.2143 36.8722 58.4649C37.1944 58.7155 37.624 58.6439 37.8746 58.3575C38.6621 57.8205 39.5213 57.3909 40.4162 57.1045C40.5594 57.0687 40.7384 56.9971 40.8816 56.9613C43.3875 56.3528 45.6786 56.8182 47.7549 58.4291C48.0413 58.6081 48.3635 58.6081 48.6499 58.3933C49.0079 58.1427 49.0795 57.6415 48.8289 57.2835C46.86 55.7442 44.891 55.2788 43.1727 55.2788C42.3494 55.2788 41.5618 55.3862 40.7742 55.601C40.5236 55.6726 40.2373 55.7442 40.0225 55.8158C38.8769 56.138 37.803 56.675 36.8364 57.3551Z" fill="#E8C476"/>
<path d="M21.9085 53.6321C23.0541 53.9901 24.2354 54.2049 25.4168 54.1691C29.3904 54.1691 32.6122 52.236 32.6122 49.8017C32.6122 48.1191 31.0013 46.6514 28.6744 45.9354C27.5289 45.5775 26.3475 45.3627 25.1662 45.3985C21.1926 45.3985 17.9707 47.3316 17.9707 49.7659C17.9707 51.4484 19.5816 52.9161 21.9085 53.6321ZM27.4931 50.0165L26.0969 51.4126C25.8105 51.6632 25.381 51.6274 25.1304 51.3768C24.9156 51.1262 24.9156 50.7324 25.1304 50.4818L26.5265 49.0857C26.8129 48.8351 27.2425 48.8709 27.4931 49.1215C27.7079 49.3721 27.7079 49.7659 27.4931 50.0165ZM22.3023 51.4126C22.0517 51.162 22.0517 50.7324 22.3023 50.446L23.6984 49.0499C23.9848 48.7993 24.4144 48.8351 24.665 49.0857C24.8798 49.3363 24.8798 49.7301 24.665 49.9807L23.2689 51.3768C22.9825 51.6632 22.5529 51.6632 22.3023 51.4126ZM55.7738 46.0428C55.6664 46.0786 55.5948 46.1144 55.4874 46.1502C55.1294 46.2934 54.7714 46.4724 54.4134 46.6872C54.2345 46.7946 54.0913 46.902 53.9481 47.0094L53.5185 47.3316L52.9815 47.8686C52.8741 47.976 52.8025 48.1191 52.6951 48.2623C52.4087 48.7277 52.2655 49.2289 52.2655 49.7659C52.2655 49.9091 52.2655 50.0523 52.3013 50.1955C52.3729 50.5534 52.5161 50.9114 52.6951 51.2336C52.7309 51.3052 52.7667 51.3768 52.8383 51.4484C52.9815 51.6632 53.1247 51.8422 53.3037 52.0212C53.4111 52.1286 53.5543 52.2718 53.6975 52.3792C53.9839 52.6297 54.306 52.8087 54.6282 52.9877C54.8072 53.0951 54.9862 53.1667 55.1652 53.2383C55.4516 53.3815 55.738 53.4889 56.0602 53.5605C58.2797 54.2765 60.6782 54.2765 62.9335 53.5605C63.1482 53.4889 63.3272 53.4173 63.542 53.3457C63.8284 53.2383 64.079 53.0951 64.3654 52.9519C64.5444 52.8445 64.6876 52.7729 64.8666 52.6655L65.2962 52.3434C65.5109 52.1644 65.6899 52.0212 65.8689 51.8064C65.9763 51.699 66.0837 51.5558 66.1553 51.4126C66.2627 51.2694 66.3343 51.162 66.4059 51.0188C66.6207 50.625 66.7281 50.1597 66.7281 49.7301C66.7281 49.1931 66.5849 48.6919 66.2985 48.2265C66.2269 48.0833 66.1195 47.976 66.0121 47.8328C65.8689 47.6538 65.6899 47.439 65.4751 47.2958C65.3319 47.1884 65.2246 47.081 65.0456 46.9736C64.9024 46.8662 64.7234 46.7588 64.5802 46.6514C64.258 46.4366 63.9 46.2576 63.5062 46.1144C63.3988 46.0786 63.3272 46.0428 63.2198 46.007C62.0027 45.5775 60.7498 45.3627 59.4968 45.3627C58.5303 45.3627 57.5637 45.4701 56.5971 45.7207C56.3108 45.8638 56.0244 45.9354 55.7738 46.0428ZM60.2486 48.9783C60.3918 48.8351 60.535 48.7635 60.714 48.7635C60.8929 48.7635 61.0719 48.8351 61.1793 48.9783L62.5755 50.3744C62.8261 50.625 62.8261 51.0546 62.5755 51.341C62.4323 51.4842 62.2891 51.52 62.1101 51.5558C61.9311 51.5558 61.7521 51.4842 61.6447 51.341L60.2486 49.9449C59.998 49.6943 59.998 49.2647 60.2486 48.9783ZM57.4205 48.9783C57.5637 48.8351 57.7069 48.7635 57.8859 48.7635C58.0649 48.7635 58.2439 48.8351 58.3513 48.9783L59.7474 50.3744C59.998 50.625 59.998 51.0546 59.7474 51.341C59.6042 51.4842 59.461 51.5558 59.282 51.5558C59.103 51.5558 58.924 51.4842 58.8166 51.341L57.4205 49.9449C57.1699 49.6943 57.1699 49.2647 57.4205 48.9783Z" fill="#FFE8B7"/>
<path d="M60.0698 49.4795C60.0698 49.6585 60.1414 49.8375 60.2846 49.9449L61.6807 51.341C61.7881 51.4484 61.9671 51.52 62.1461 51.5558C62.5041 51.5558 62.8262 51.2694 62.8262 50.8756C62.8262 50.6966 62.7546 50.5176 62.6115 50.4102L61.2153 49.0141C61.0721 48.8709 60.9289 48.7993 60.7499 48.7993C60.392 48.7993 60.0698 49.0857 60.0698 49.4795ZM60.4636 49.1931C60.6067 49.0499 60.8573 49.0499 61.0005 49.1931L62.3967 50.5892C62.5399 50.7324 62.5399 50.983 62.3967 51.1262C62.2535 51.2694 62.0029 51.2694 61.8597 51.1262L60.4636 49.7301C60.3204 49.5869 60.3204 49.3363 60.4636 49.1931ZM57.2417 49.4795C57.2417 49.6585 57.3133 49.8375 57.4565 49.9449L58.8526 51.341C58.9958 51.4842 59.139 51.5558 59.318 51.5558C59.676 51.5558 59.9982 51.2694 59.9982 50.8756C59.9982 50.6966 59.9266 50.5176 59.7834 50.4102L58.3872 49.0141C58.2441 48.8709 58.1009 48.7993 57.9219 48.7993C57.5281 48.7993 57.2417 49.0857 57.2417 49.4795ZM57.6355 49.1931C57.7071 49.1215 57.8145 49.0857 57.9219 49.0857C58.0293 49.0857 58.1367 49.1215 58.2083 49.1931L59.6044 50.5892C59.7476 50.7324 59.7476 50.983 59.6044 51.1262C59.4612 51.2694 59.2106 51.2694 59.0674 51.1262L57.6713 49.7301C57.4923 49.5869 57.4923 49.3363 57.6355 49.1931Z" fill="#E8C476"/>
<path d="M59.0315 51.1262C59.1747 51.2694 59.4253 51.2694 59.5685 51.1262C59.7117 50.983 59.7117 50.7324 59.5685 50.5892L58.1724 49.1931C58.1008 49.1215 57.9934 49.0857 57.886 49.0857C57.6712 49.0857 57.4922 49.2647 57.4922 49.4795C57.4922 49.5869 57.528 49.6943 57.5996 49.7659L59.0315 51.1262ZM61.8596 51.1262C62.0028 51.2694 62.2534 51.2694 62.3966 51.1262C62.5398 50.983 62.5398 50.7324 62.3966 50.5892L61.0004 49.1931C60.8572 49.0499 60.6066 49.0499 60.4635 49.1931C60.3203 49.3363 60.3203 49.5869 60.4635 49.7301L61.8596 51.1262Z" fill="#F9D896"/>
<path d="M10.9543 18.5497C10.9543 18.4423 10.9543 18.3349 10.9901 18.2275C10.9901 18.3349 10.9543 18.4423 10.9543 18.5497Z" fill="#EDF3FF"/>
<path d="M80.3315 27.1772C80.3315 27.1056 80.3315 27.034 80.3673 26.9982C80.3315 27.0698 80.3315 27.1056 80.3315 27.1772ZM6.12149 27.1772C6.12149 27.034 6.08569 26.9266 6.08569 26.7834C6.12149 26.9266 6.12149 27.034 6.12149 27.1772L10.8827 63.6199L11.0259 64.8013L6.12149 27.1772Z" fill="white"/>
<path d="M26.7413 49.2647L25.3452 50.6609C25.202 50.8041 25.202 51.0547 25.3452 51.1979C25.4884 51.3411 25.739 51.3411 25.8822 51.1979L27.2783 49.8017C27.4215 49.6585 27.4215 49.4079 27.2783 49.2647C27.1351 49.1216 26.8845 49.1216 26.7413 49.2647Z" fill="#F9D896"/>
<path d="M27.0279 48.871C26.8489 48.871 26.6699 48.9426 26.5625 49.0858L25.1664 50.4819C24.9158 50.7683 24.9516 51.1979 25.2022 51.4485C25.4527 51.6632 25.8465 51.6632 26.0971 51.4485L27.4933 50.0523C27.7438 49.8017 27.7438 49.3721 27.4933 49.0858C27.3501 48.9426 27.2069 48.871 27.0279 48.871ZM27.2785 49.2648C27.4217 49.4079 27.4217 49.6585 27.2785 49.8017L25.8823 51.1979C25.7391 51.3411 25.4885 51.3411 25.3454 51.1979C25.2022 51.0547 25.2022 50.8041 25.3454 50.6609L26.7415 49.2648C26.8847 49.1216 27.1353 49.1216 27.2785 49.2648Z" fill="#E8C476"/>
<path d="M23.8776 49.2647L22.4814 50.6609C22.3382 50.8041 22.3382 51.0547 22.4814 51.1979C22.6246 51.3411 22.8752 51.3411 23.0184 51.1979L24.4145 49.8017C24.5577 49.6585 24.5577 49.4079 24.4145 49.2647C24.3071 49.1216 24.0565 49.1216 23.8776 49.2647Z" fill="#F9D896"/>
<path d="M23.269 51.4126L24.6651 50.0164C24.9157 49.7301 24.8799 49.3005 24.6293 49.0499C24.3787 48.8351 23.985 48.8351 23.7344 49.0499L22.3382 50.446C22.0876 50.7324 22.1234 51.162 22.374 51.4126C22.6246 51.6274 23.0184 51.6274 23.269 51.4126ZM24.4503 49.2647C24.5935 49.4079 24.5935 49.6585 24.4503 49.8017L23.0542 51.1978C22.911 51.341 22.6604 51.341 22.5172 51.1978C22.374 51.0546 22.374 50.804 22.5172 50.6608L23.9134 49.2647C24.0566 49.1215 24.2713 49.1215 24.4503 49.2647Z" fill="#E8C476"/>
<path d="M80.4391 72.104V71.4239C80.4391 71.1733 80.2243 70.9585 79.9737 70.9585C79.7231 70.9585 79.5083 71.1733 79.5083 71.4239V72.8916H78.0406C77.79 72.8916 77.5752 73.1064 77.5752 73.357C77.5752 73.6076 77.79 73.8224 78.0406 73.8224H79.5083V75.2901C79.5083 75.5407 79.7231 75.7555 79.9737 75.7555C80.2243 75.7555 80.4391 75.5407 80.4391 75.2901V73.8224H81.9068C82.1574 73.8224 82.3722 73.6076 82.3722 73.357C82.3722 73.1064 82.1574 72.8916 81.9068 72.8916H80.4391V72.104Z" fill="#E8C171"/>
</svg>
