<svg width="158" height="52" viewBox="0 0 158 52" fill="none" xmlns="http://www.w3.org/2000/svg">
<g filter="url(#filter0_d_2874_60855)">
<g filter="url(#filter1_d_2874_60855)">
<path d="M4.00019 25.0002C4.00009 13.4021 13.4021 4.00001 25.0002 4.00002L133 4.00015C144.598 4.00016 154 13.4021 154 25.0001C154 36.598 144.598 46 133 46H25.0002C13.4023 46 4.0003 36.5981 4.00019 25.0002Z" fill="url(#paint0_linear_2874_60855)"/>
</g>
<mask id="mask0_2874_60855" style="mask-type:alpha" maskUnits="userSpaceOnUse" x="4" y="2" width="150" height="42">
<path d="M4 23C4 11.402 13.402 2 25 2H133C144.598 2 154 11.402 154 23C154 34.598 144.598 44 133 44H25C13.402 44 4 34.598 4 23Z" fill="url(#paint1_linear_2874_60855)"/>
</mask>
<g mask="url(#mask0_2874_60855)">
<g filter="url(#filter2_i_2874_60855)">
<path d="M4 23C4 11.402 13.402 2 25 2H133C144.598 2 154 11.402 154 23C154 34.598 144.598 44 133 44H25C13.402 44 4 34.598 4 23Z" fill="url(#paint2_linear_2874_60855)"/>
</g>
<path fill-rule="evenodd" clip-rule="evenodd" d="M9 1.96875C6.23858 1.96875 4 4.20732 4 6.96875V30.3272C10.4871 18.6614 22.9385 10.7681 37.2334 10.7681H116.13C133.012 10.7681 147.626 21.8559 152.454 37.5983L154.02 7.22627C154.168 4.36749 151.89 1.96875 149.027 1.96875H9Z" fill="url(#paint3_linear_2874_60855)"/>
<path d="M4.5 23C4.5 11.6782 13.6782 2.5 25 2.5H133C144.322 2.5 153.5 11.6782 153.5 23C153.5 34.3218 144.322 43.5 133 43.5H25C13.6782 43.5 4.5 34.3218 4.5 23Z" stroke="url(#paint4_linear_2874_60855)"/>
<g filter="url(#filter3_f_2874_60855)">
<ellipse cx="79.5" cy="43.5" rx="46.5" ry="3.5" fill="#ACD44D"/>
</g>
<g filter="url(#filter4_f_2874_60855)">
<ellipse cx="79.5" cy="43.4688" rx="44.5" ry="1.5" fill="#F1FFC1"/>
</g>
<rect x="31" y="42" width="97" height="2" fill="url(#paint5_linear_2874_60855)"/>
<rect x="26" y="2" width="106" height="2" fill="url(#paint6_linear_2874_60855)"/>
<g filter="url(#filter5_f_2874_60855)">
<ellipse cx="136.28" cy="11.4811" rx="7.03906" ry="6.5" transform="rotate(-39.2668 136.28 11.4811)" fill="#EFFFB5"/>
</g>
<g filter="url(#filter6_f_2874_60855)">
<ellipse cx="145.895" cy="34.3932" rx="10.0498" ry="6.5" transform="rotate(-39.2668 145.895 34.3932)" fill="#D3F760"/>
</g>
</g>
<path d="M4 23C4 11.402 13.402 2 25 2H133C144.598 2 154 11.402 154 23C154 34.598 144.598 44 133 44H25C13.402 44 4 34.598 4 23Z" fill="black" fill-opacity="0.2"/>
</g>
<defs>
<filter id="filter0_d_2874_60855" x="0" y="0" width="158" height="52" filterUnits="userSpaceOnUse" color-interpolation-filters="sRGB">
<feFlood flood-opacity="0" result="BackgroundImageFix"/>
<feColorMatrix in="SourceAlpha" type="matrix" values="0 0 0 0 0 0 0 0 0 0 0 0 0 0 0 0 0 0 127 0" result="hardAlpha"/>
<feOffset dy="2"/>
<feGaussianBlur stdDeviation="2"/>
<feComposite in2="hardAlpha" operator="out"/>
<feColorMatrix type="matrix" values="0 0 0 0 0.365137 0 0 0 0 0.177198 0 0 0 0 0.0555906 0 0 0 0.3 0"/>
<feBlend mode="normal" in2="BackgroundImageFix" result="effect1_dropShadow_2874_60855"/>
<feBlend mode="normal" in="SourceGraphic" in2="effect1_dropShadow_2874_60855" result="shape"/>
</filter>
<filter id="filter1_d_2874_60855" x="3.00024" y="4" width="152" height="44" filterUnits="userSpaceOnUse" color-interpolation-filters="sRGB">
<feFlood flood-opacity="0" result="BackgroundImageFix"/>
<feColorMatrix in="SourceAlpha" type="matrix" values="0 0 0 0 0 0 0 0 0 0 0 0 0 0 0 0 0 0 127 0" result="hardAlpha"/>
<feOffset dy="1"/>
<feGaussianBlur stdDeviation="0.5"/>
<feComposite in2="hardAlpha" operator="out"/>
<feColorMatrix type="matrix" values="0 0 0 0 0.343074 0 0 0 0 0.572542 0 0 0 0 0.102133 0 0 0 0.52 0"/>
<feBlend mode="normal" in2="BackgroundImageFix" result="effect1_dropShadow_2874_60855"/>
<feBlend mode="normal" in="SourceGraphic" in2="effect1_dropShadow_2874_60855" result="shape"/>
</filter>
<filter id="filter2_i_2874_60855" x="4" y="2" width="150" height="42" filterUnits="userSpaceOnUse" color-interpolation-filters="sRGB">
<feFlood flood-opacity="0" result="BackgroundImageFix"/>
<feBlend mode="normal" in="SourceGraphic" in2="BackgroundImageFix" result="shape"/>
<feColorMatrix in="SourceAlpha" type="matrix" values="0 0 0 0 0 0 0 0 0 0 0 0 0 0 0 0 0 0 127 0" result="hardAlpha"/>
<feOffset/>
<feGaussianBlur stdDeviation="2"/>
<feComposite in2="hardAlpha" operator="arithmetic" k2="-1" k3="1"/>
<feColorMatrix type="matrix" values="0 0 0 0 0.495149 0 0 0 0 0.73387 0 0 0 0 0.120604 0 0 0 1 0"/>
<feBlend mode="normal" in2="shape" result="effect1_innerShadow_2874_60855"/>
</filter>
<filter id="filter3_f_2874_60855" x="26.8" y="33.8" width="105.4" height="19.4" filterUnits="userSpaceOnUse" color-interpolation-filters="sRGB">
<feFlood flood-opacity="0" result="BackgroundImageFix"/>
<feBlend mode="normal" in="SourceGraphic" in2="BackgroundImageFix" result="shape"/>
<feGaussianBlur stdDeviation="3.1" result="effect1_foregroundBlur_2874_60855"/>
</filter>
<filter id="filter4_f_2874_60855" x="31.1" y="38.0687" width="96.8" height="10.8" filterUnits="userSpaceOnUse" color-interpolation-filters="sRGB">
<feFlood flood-opacity="0" result="BackgroundImageFix"/>
<feBlend mode="normal" in="SourceGraphic" in2="BackgroundImageFix" result="shape"/>
<feGaussianBlur stdDeviation="1.95" result="effect1_foregroundBlur_2874_60855"/>
</filter>
<filter id="filter5_f_2874_60855" x="117.851" y="-6.84011" width="36.8572" height="36.6425" filterUnits="userSpaceOnUse" color-interpolation-filters="sRGB">
<feFlood flood-opacity="0" result="BackgroundImageFix"/>
<feBlend mode="normal" in="SourceGraphic" in2="BackgroundImageFix" result="shape"/>
<feGaussianBlur stdDeviation="5.8" result="effect1_foregroundBlur_2874_60855"/>
</filter>
<filter id="filter6_f_2874_60855" x="125.492" y="14.682" width="40.8062" height="39.4223" filterUnits="userSpaceOnUse" color-interpolation-filters="sRGB">
<feFlood flood-opacity="0" result="BackgroundImageFix"/>
<feBlend mode="normal" in="SourceGraphic" in2="BackgroundImageFix" result="shape"/>
<feGaussianBlur stdDeviation="5.8" result="effect1_foregroundBlur_2874_60855"/>
</filter>
<linearGradient id="paint0_linear_2874_60855" x1="154" y1="24.9999" x2="5.81452" y2="24.9999" gradientUnits="userSpaceOnUse">
<stop stop-color="#BBDE4D"/>
<stop offset="0.0545933" stop-color="#58901D"/>
<stop offset="0.245" stop-color="#6B9F34"/>
<stop offset="0.505954" stop-color="#93D745"/>
<stop offset="0.738397" stop-color="#72AA31"/>
<stop offset="0.960396" stop-color="#69A326"/>
<stop offset="1" stop-color="#ACD346"/>
</linearGradient>
<linearGradient id="paint1_linear_2874_60855" x1="79" y1="2" x2="79" y2="44" gradientUnits="userSpaceOnUse">
<stop offset="0.293962" stop-color="#FFCC2A"/>
<stop offset="0.472829" stop-color="#FFC12A"/>
<stop offset="0.827682" stop-color="#FB7F09"/>
<stop offset="1" stop-color="#F98108"/>
</linearGradient>
<linearGradient id="paint2_linear_2874_60855" x1="79" y1="2" x2="79" y2="44" gradientUnits="userSpaceOnUse">
<stop offset="0.293962" stop-color="#BDDE4B"/>
<stop offset="0.472829" stop-color="#BCDE4D"/>
<stop offset="0.827682" stop-color="#6EC029"/>
<stop offset="1" stop-color="#6CBD27"/>
</linearGradient>
<linearGradient id="paint3_linear_2874_60855" x1="79.0162" y1="1.96875" x2="79.0162" y2="19.7357" gradientUnits="userSpaceOnUse">
<stop stop-color="#E9FFA6"/>
<stop offset="0.935" stop-color="#F1FFA6" stop-opacity="0"/>
</linearGradient>
<linearGradient id="paint4_linear_2874_60855" x1="79" y1="2" x2="79" y2="44" gradientUnits="userSpaceOnUse">
<stop stop-color="#EFFFBA"/>
<stop offset="0.351779" stop-color="#C4EA65"/>
<stop offset="0.744148" stop-color="#ACDF51"/>
<stop offset="1" stop-color="#89CE3E"/>
</linearGradient>
<linearGradient id="paint5_linear_2874_60855" x1="31" y1="43" x2="128" y2="43" gradientUnits="userSpaceOnUse">
<stop stop-color="#8ACF3F" stop-opacity="0"/>
<stop offset="0.235" stop-color="#B1DA48"/>
<stop offset="0.525" stop-color="#E3F997"/>
<stop offset="0.775" stop-color="#B8ED53"/>
<stop offset="0.98" stop-color="#BBDD4C" stop-opacity="0"/>
</linearGradient>
<linearGradient id="paint6_linear_2874_60855" x1="26" y1="3" x2="132" y2="3" gradientUnits="userSpaceOnUse">
<stop stop-color="#D4EE77" stop-opacity="0"/>
<stop offset="0.235" stop-color="#DCF488"/>
<stop offset="0.525" stop-color="#F2FFC6"/>
<stop offset="0.775" stop-color="#E8FF92"/>
<stop offset="0.98" stop-color="#DBF387" stop-opacity="0"/>
</linearGradient>
</defs>
</svg>
