<svg width="24" height="24" viewBox="0 0 24 24" fill="none" xmlns="http://www.w3.org/2000/svg">
<path d="M21.7089 7.21409C22.0579 7.53409 22.0989 8.09759 21.8004 8.47209C21.1103 9.33791 20.3166 10.1157 19.4369 10.7881L21.2419 12.7241C21.5604 13.0791 21.5514 13.6436 21.2209 13.9861C21.1469 14.0651 21.0574 14.128 20.9581 14.1711C20.8588 14.2141 20.7517 14.2363 20.6434 14.2363C20.5351 14.2363 20.428 14.2141 20.3287 14.1711C20.2294 14.128 20.1399 14.0651 20.0659 13.9861L17.9784 11.7481C17.0332 12.2841 16.021 12.6921 14.9684 12.9616L15.9334 15.8021C16.0899 16.2656 15.8674 16.7771 15.4359 16.9461C15.0039 17.1146 14.5269 16.8761 14.3699 16.4126L13.3049 13.2686C12.4332 13.3665 11.5534 13.37 10.6809 13.2791L9.61641 16.4126C9.45941 16.8756 8.98241 17.1146 8.55041 16.9461C8.11891 16.7776 7.89641 16.2656 8.05341 15.8021L9.01141 12.9871C7.94985 12.7229 6.92808 12.3189 5.97291 11.7856L3.92042 13.9856C3.84467 14.0665 3.75279 14.1305 3.65073 14.1737C3.54866 14.2168 3.43868 14.2381 3.32789 14.236C3.2171 14.234 3.10797 14.2088 3.00755 14.1619C2.90713 14.1151 2.81766 14.0477 2.74492 13.9641C2.59444 13.7926 2.51146 13.5722 2.51146 13.3441C2.51146 13.1159 2.59444 12.8956 2.74492 12.7241L4.50792 10.8331C3.65076 10.1861 2.87452 9.43842 2.19592 8.60609C1.89992 8.22959 1.94442 7.66659 2.29492 7.34909C2.63642 7.04009 3.14392 7.07509 3.44492 7.42859C5.58891 10.0576 8.68741 11.5636 11.9434 11.5591C15.2909 11.5591 18.4009 9.98909 20.5364 7.31259C20.8349 6.93759 21.3599 6.89409 21.7089 7.21409Z" fill="#CE9D7D"/>
</svg>
