<svg width="24" height="24" viewBox="0 0 24 24" fill="none" xmlns="http://www.w3.org/2000/svg">
<path d="M12 4.5C15.6667 4.5 18.938 6.814 21.8065 11.3345C21.9329 11.5334 22 11.7643 22 12C22 12.2357 21.9329 12.4666 21.8065 12.6655C18.938 17.186 15.6667 19.5 12 19.5C8.33321 19.5 5.06196 17.186 2.19346 12.6655C2.06702 12.4666 1.99988 12.2357 1.99988 12C1.99988 11.7643 2.06702 11.5334 2.19346 11.3345C5.06196 6.814 8.33321 4.5 12 4.5ZM12 7.5C9.51471 7.5 7.49996 9.51475 7.49996 12C7.49996 14.4852 9.51471 16.5 12 16.5C14.4852 16.5 16.5 14.4852 16.5 12C16.5 9.51475 14.4852 7.5 12 7.5ZM12 15C13.6567 15 15 13.6567 15 12C15 10.3432 13.6567 9 12 9C10.3432 9 8.99996 10.3432 8.99996 12C8.99996 13.6567 10.3432 15 12 15Z" fill="#CE9D7D"/>
</svg>
