<svg width="24" height="24" viewBox="0 0 24 24" fill="none" xmlns="http://www.w3.org/2000/svg">
<path fill-rule="evenodd" clip-rule="evenodd" d="M16.6843 10.1205V6.54938C16.6843 3.96144 14.5879 1.86506 12 1.86506C9.41205 1.86506 7.31567 3.9759 7.31567 6.54938V10.1205H16.6843ZM5.43616 10.1205V6.54938C5.43616 2.93493 8.38555 0 12 0C15.6145 0 18.5638 2.94939 18.5638 6.56384V10.1205H20.3855C21.3397 10.1205 22.1204 10.9012 22.1204 11.8554V22.265C22.1204 23.2192 21.3397 24 20.3855 24H3.61445C2.66024 24 1.87952 23.2192 1.87952 22.265V11.8554C1.87952 10.9012 2.66024 10.1205 3.61445 10.1205H5.43616ZM9.54215 19.5614C9.54215 20.9205 10.6409 22.0192 12 22.0192C13.359 22.0192 14.4578 20.9205 14.4578 19.5614C14.4578 18.5349 13.8361 17.6674 12.9397 17.2915V13.5614C12.9397 13.0409 12.5205 12.6217 12 12.6217C11.4795 12.6217 11.0602 13.0409 11.0602 13.5614V17.2915C10.1638 17.653 9.54215 18.5349 9.54215 19.5614Z" fill="url(#paint0_linear_2246_1181)"/>
<defs>
<linearGradient id="paint0_linear_2246_1181" x1="12" y1="0" x2="12" y2="24" gradientUnits="userSpaceOnUse">
<stop stop-color="#A7672D"/>
<stop offset="1" stop-color="#BE7A3C"/>
</linearGradient>
</defs>
</svg>
